<?xml version="1.0" standalone="no"?>
<!DOCTYPE svg PUBLIC "-//W3C//DTD SVG 20010904//EN"
 "http://www.w3.org/TR/2001/REC-SVG-20010904/DTD/svg10.dtd">
<svg version="1.0" xmlns="http://www.w3.org/2000/svg"
 width="512.000000pt" height="512.000000pt" viewBox="0 0 512.000000 512.000000"
 preserveAspectRatio="xMidYMid meet">
<metadata>
Created by potrace 1.13, written by Peter Selinger 2001-2015
</metadata>
<g transform="translate(0.000000,512.000000) scale(0.100000,-0.100000)"
fill="#000000" stroke="none">
<path d="M2405 4899 c-56 -12 -80 -27 -136 -86 -104 -108 -1999 -2223 -2037
-2273 -119 -158 -216 -463 -229 -720 -14 -309 97 -584 315 -773 139 -121 84
-102 1401 -492 1100 -327 1209 -357 1257 -352 37 4 65 14 90 33 43 34 1961
2341 1988 2392 24 47 25 123 1 187 -27 71 -27 249 -1 324 50 144 -3 260 -133
293 -57 15 -139 -11 -179 -56 -35 -40 -68 -121 -89 -221 -13 -63 -14 -251 -1
-377 3 -23 -134 -192 -862 -1068 -476 -573 -874 -1053 -885 -1066 l-20 -25
-1115 331 c-1051 312 -1118 334 -1166 370 -140 105 -205 251 -205 455 0 242
69 345 236 353 66 3 123 -12 1090 -287 561 -160 1036 -294 1055 -297 50 -8
114 11 155 47 71 63 2127 2440 2145 2482 22 48 25 85 9 142 -14 50 -80 116
-134 133 -55 17 -2408 542 -2470 551 -27 4 -63 4 -80 0z m766 -959 c406 -99
753 -187 770 -195 37 -20 54 -58 38 -88 -14 -27 -154 -195 -183 -220 -38 -32
-90 -49 -151 -49 -71 1 -1520 351 -1570 380 -23 14 -31 26 -33 54 -3 33 5 46
86 140 103 119 116 132 157 146 76 26 128 16 886 -168z"/>
</g>
</svg>
